<svg width="23" height="18" viewBox="0 0 23 18" fill="none" xmlns="http://www.w3.org/2000/svg">
<path fill-rule="evenodd" clip-rule="evenodd" d="M4.50931 0.440525C5.54204 -0.0303243 6.70643 -0.127174 7.80276 0.166588C8.33623 0.30953 8.65281 0.857867 8.50987 1.39133C8.36693 1.9248 7.81859 2.24138 7.28513 2.09844C6.63729 1.92485 5.94925 1.98208 5.33899 2.26031C4.72874 2.53854 4.23431 3.02043 3.9405 3.62334C3.64668 4.22624 3.5718 4.91259 3.72869 5.56467C3.88558 6.21675 4.26447 6.79392 4.80036 7.1972C5.0911 7.41599 5.24005 7.77542 5.1893 8.13573C5.13854 8.49603 4.89609 8.80033 4.55623 8.93028C3.87688 9.19004 3.2528 9.59126 2.72863 10.1154C2.55204 10.292 2.38944 10.4799 2.24151 10.6774C1.93328 11.0889 1.95338 11.4336 2.11559 11.7423C2.30714 12.1068 2.74726 12.4847 3.36982 12.6806C3.89665 12.8463 4.18939 13.4077 4.02366 13.9345C3.85793 14.4614 3.2965 14.7541 2.76967 14.5884C1.74787 14.267 0.829116 13.5936 0.34516 12.6727C-0.168126 11.6959 -0.140151 10.521 0.640769 9.4784C0.845403 9.2052 1.07029 8.94534 1.31442 8.70122C1.69083 8.32481 2.10452 7.99423 2.5468 7.7131C2.19081 7.21007 1.93047 6.64053 1.78418 6.03252C1.51868 4.929 1.6454 3.76749 2.14262 2.74719C2.63984 1.72688 3.47657 0.911375 4.50931 0.440525ZM17.3006 2.26031C16.6903 1.98208 16.0023 1.92485 15.3545 2.09844C14.821 2.24138 14.2727 1.9248 14.1297 1.39133C13.9868 0.857867 14.3034 0.30953 14.8368 0.166588C15.9332 -0.127174 17.0975 -0.0303243 18.1303 0.440525C19.163 0.911375 19.9998 1.72688 20.497 2.74719C20.9942 3.76749 21.1209 4.929 20.8554 6.03252C20.7091 6.64053 20.4488 7.21007 20.0928 7.7131C20.5351 7.99423 20.9488 8.32481 21.3252 8.70122C21.5693 8.94534 21.7942 9.2052 21.9988 9.4784C22.7797 10.521 22.8077 11.6959 22.2944 12.6727C21.8105 13.5936 20.8917 14.267 19.8699 14.5884C19.3431 14.7541 18.7817 14.4614 18.6159 13.9345C18.4502 13.4077 18.7429 12.8463 19.2698 12.6806C19.8923 12.4847 20.3325 12.1068 20.524 11.7423C20.6862 11.4336 20.7063 11.0889 20.3981 10.6774C20.2502 10.4799 20.0876 10.292 19.911 10.1154C19.3868 9.59126 18.7627 9.19004 18.0834 8.93028C17.7435 8.80033 17.501 8.49603 17.4503 8.13573C17.3995 7.77542 17.5485 7.41599 17.8392 7.1972C18.3751 6.79392 18.754 6.21675 18.9109 5.56467C19.0678 4.91259 18.9929 4.22624 18.6991 3.62334C18.4053 3.02043 17.9109 2.53854 17.3006 2.26031ZM11.3199 4C9.72443 4 8.43103 5.2934 8.43103 6.88889C8.43103 8.48439 9.72447 9.77783 11.3199 9.77783C12.9154 9.77783 14.2088 8.4844 14.2088 6.88889C14.2088 5.2934 12.9154 4 11.3199 4ZM14.5633 10.5471C15.5727 9.65145 16.2088 8.34444 16.2088 6.88889C16.2088 4.18883 14.02 2 11.3199 2C8.61986 2 6.43104 4.18883 6.43104 6.88889C6.43104 8.34445 7.06714 9.65146 8.07654 10.5471C7.39375 10.8902 6.76355 11.3427 6.21306 11.8932C5.96893 12.1373 5.74405 12.3972 5.53941 12.6704C5.08079 13.2826 4.86482 13.9651 4.90285 14.6538C4.94029 15.3319 5.21922 15.939 5.61798 16.4291C6.40267 17.3936 7.71839 18.0001 9.09772 18.0001H13.5422C14.9215 18.0001 16.2372 17.3936 17.0219 16.4291C17.4207 15.939 17.6996 15.3319 17.737 14.6538C17.7751 13.9651 17.5591 13.2826 17.1005 12.6704C16.8958 12.3972 16.671 12.1373 16.4268 11.8932C15.8763 11.3427 15.2461 10.8902 14.5633 10.5471ZM11.3199 11.7778C9.93493 11.7778 8.60663 12.328 7.62728 13.3074C7.45069 13.484 7.28809 13.6719 7.14016 13.8694C6.93659 14.1411 6.89006 14.367 6.89981 14.5435C6.91014 14.7306 6.98925 14.9455 7.16939 15.1669C7.54248 15.6255 8.26792 16.0001 9.09772 16.0001H13.5422C14.372 16.0001 15.0974 15.6255 15.4705 15.1669C15.6506 14.9455 15.7298 14.7306 15.7401 14.5435C15.7498 14.367 15.7033 14.1411 15.4997 13.8694C15.3518 13.6719 15.1892 13.484 15.0126 13.3074C14.0333 12.328 12.705 11.7778 11.3199 11.7778Z" fill="black"/>
</svg>
