<svg width="20" height="20" viewBox="0 0 20 20" fill="none" xmlns="http://www.w3.org/2000/svg">
<path d="M15.8333 0H4.16667C3.062 0.00144351 2.00296 0.480802 1.22185 1.33293C0.440735 2.18505 0.00132321 3.34037 0 4.54545L0 15.4545C0.00132321 16.6596 0.440735 17.8149 1.22185 18.6671C2.00296 19.5192 3.062 19.9986 4.16667 20H15.8333C16.938 19.9986 17.997 19.5192 18.7782 18.6671C19.5593 17.8149 19.9987 16.6596 20 15.4545V4.54545C19.9987 3.34037 19.5593 2.18505 18.7782 1.33293C17.997 0.480802 16.938 0.00144351 15.8333 0ZM4.16667 1.81818H15.8333C16.3323 1.81925 16.8196 1.9832 17.2325 2.28891C17.6453 2.59463 17.9649 3.02813 18.15 3.53364L11.7683 10.4964C11.2987 11.0066 10.6628 11.2932 10 11.2932C9.33715 11.2932 8.70131 11.0066 8.23167 10.4964L1.85 3.53364C2.03512 3.02813 2.35468 2.59463 2.76754 2.28891C3.1804 1.9832 3.66768 1.81925 4.16667 1.81818ZM15.8333 18.1818H4.16667C3.50363 18.1818 2.86774 17.8945 2.3989 17.383C1.93006 16.8716 1.66667 16.1779 1.66667 15.4545V5.90909L7.05333 11.7818C7.83552 12.633 8.89521 13.1109 10 13.1109C11.1048 13.1109 12.1645 12.633 12.9467 11.7818L18.3333 5.90909V15.4545C18.3333 16.1779 18.0699 16.8716 17.6011 17.383C17.1323 17.8945 16.4964 18.1818 15.8333 18.1818Z" fill="black"/>
</svg>
