<svg width="20" height="20" viewBox="0 0 20 20" fill="none" xmlns="http://www.w3.org/2000/svg">
<path fill-rule="evenodd" clip-rule="evenodd" d="M0 0.625C0 0.279822 0.279822 0 0.625 0H19.375C19.7202 0 20 0.279822 20 0.625V19.375C20 19.7202 19.7202 20 19.375 20H0.625C0.279822 20 0 19.7202 0 19.375V0.625ZM1.5625 1.5625V18.4375H18.4375V1.5625H1.5625Z" fill="black"/>
<path fill-rule="evenodd" clip-rule="evenodd" d="M10.4688 3.4375C10.6413 3.4375 10.7812 3.57741 10.7812 3.75V16.25C10.7812 16.4226 10.6413 16.5625 10.4688 16.5625H9.53125C9.35866 16.5625 9.21875 16.4226 9.21875 16.25V3.75C9.21875 3.57741 9.35866 3.4375 9.53125 3.4375H10.4688ZM5.625 7.8125C5.79759 7.8125 5.9375 7.95241 5.9375 8.125V16.25C5.9375 16.4226 5.79759 16.5625 5.625 16.5625H4.6875C4.51491 16.5625 4.375 16.4226 4.375 16.25V8.125C4.375 7.95241 4.51491 7.8125 4.6875 7.8125H5.625ZM15.3125 10.9375C15.4851 10.9375 15.625 11.0774 15.625 11.25V16.25C15.625 16.4226 15.4851 16.5625 15.3125 16.5625H14.375C14.2024 16.5625 14.0625 16.4226 14.0625 16.25V11.25C14.0625 11.0774 14.2024 10.9375 14.375 10.9375H15.3125Z" fill="black"/>
</svg>
