<svg width="19" height="14" viewBox="0 0 19 14" fill="none" xmlns="http://www.w3.org/2000/svg">
<path d="M17.84 4.15971L13.961 0.280712C13.7724 0.0985542 13.5198 -0.00224062 13.2576 3.78025e-05C12.9954 0.00231622 12.7446 0.107485 12.5592 0.292893C12.3738 0.478302 12.2686 0.729114 12.2663 0.991311C12.264 1.25351 12.3648 1.50611 12.547 1.69471L16.426 5.57371C16.5412 5.69124 16.642 5.82218 16.726 5.96371C16.711 5.96371 16.699 5.95571 16.684 5.95571L1 5.98771C0.734784 5.98771 0.48043 6.09307 0.292893 6.2806C0.105357 6.46814 0 6.7225 0 6.98771C0 7.25293 0.105357 7.50728 0.292893 7.69482C0.48043 7.88235 0.734784 7.98771 1 7.98771L16.678 7.95571C16.706 7.95571 16.729 7.94171 16.756 7.93971C16.6673 8.10887 16.5548 8.26445 16.422 8.40171L12.543 12.2807C12.4475 12.373 12.3713 12.4833 12.3189 12.6053C12.2665 12.7273 12.2389 12.8585 12.2377 12.9913C12.2366 13.1241 12.2619 13.2558 12.3122 13.3787C12.3625 13.5016 12.4367 13.6132 12.5306 13.7071C12.6245 13.801 12.7361 13.8753 12.859 13.9255C12.9819 13.9758 13.1136 14.0011 13.2464 14C13.3792 13.9988 13.5104 13.9712 13.6324 13.9188C13.7544 13.8664 13.8648 13.7902 13.957 13.6947L17.836 9.81571C18.5859 9.0656 19.0071 8.04837 19.0071 6.98771C19.0071 5.92705 18.5859 4.90982 17.836 4.15971H17.84Z" fill="#374957"/>
</svg>
