<svg width="20" height="22" viewBox="0 0 20 22" fill="none" xmlns="http://www.w3.org/2000/svg">
<path d="M18.3722 2.86185L16.5322 1.34202C16.0174 0.915137 15.4051 0.576728 14.7307 0.346375C14.0563 0.116022 13.3332 -0.00170132 12.6033 1.85766e-05H5.55555C4.08267 0.00147411 2.67062 0.484827 1.62913 1.34405C0.587646 2.20328 0.00176428 3.36822 0 4.58335V17.4167C0.00176428 18.6318 0.587646 19.7967 1.62913 20.656C2.67062 21.5152 4.08267 21.9985 5.55555 22H14.4444C15.9173 21.9985 17.3294 21.5152 18.3709 20.656C19.4123 19.7967 19.9982 18.6318 20 17.4167V6.10226C20.0018 5.50018 19.8588 4.90378 19.5794 4.34757C19.3 3.79136 18.8897 3.28638 18.3722 2.86185ZM16.8011 4.15801C16.9587 4.28756 17.0998 4.43008 17.2222 4.58335H14.4444V2.29168C14.6299 2.39373 14.8029 2.51038 14.9611 2.64002L16.8011 4.15801ZM17.7778 17.4167C17.7778 18.146 17.4266 18.8455 16.8015 19.3612C16.1763 19.8769 15.3285 20.1667 14.4444 20.1667H5.55555C4.6715 20.1667 3.82365 19.8769 3.19853 19.3612C2.57341 18.8455 2.22222 18.146 2.22222 17.4167V4.58335C2.22222 3.854 2.57341 3.15453 3.19853 2.63881C3.82365 2.12308 4.6715 1.83335 5.55555 1.83335H12.2222V4.58335C12.2222 5.06958 12.4563 5.53589 12.8731 5.87971C13.2898 6.22353 13.8551 6.41668 14.4444 6.41668H17.7778V17.4167ZM14.4444 8.25001C14.7391 8.25001 15.0217 8.34659 15.2301 8.5185C15.4385 8.6904 15.5555 8.92356 15.5555 9.16668C15.5555 9.40979 15.4385 9.64295 15.2301 9.81486C15.0217 9.98677 14.7391 10.0833 14.4444 10.0833H5.55555C5.26087 10.0833 4.97825 9.98677 4.76988 9.81486C4.5615 9.64295 4.44444 9.40979 4.44444 9.16668C4.44444 8.92356 4.5615 8.6904 4.76988 8.5185C4.97825 8.34659 5.26087 8.25001 5.55555 8.25001H14.4444ZM15.5555 12.8333C15.5555 13.0765 15.4385 13.3096 15.2301 13.4815C15.0217 13.6534 14.7391 13.75 14.4444 13.75H5.55555C5.26087 13.75 4.97825 13.6534 4.76988 13.4815C4.5615 13.3096 4.44444 13.0765 4.44444 12.8333C4.44444 12.5902 4.5615 12.3571 4.76988 12.1852C4.97825 12.0133 5.26087 11.9167 5.55555 11.9167H14.4444C14.7391 11.9167 15.0217 12.0133 15.2301 12.1852C15.4385 12.3571 15.5555 12.5902 15.5555 12.8333ZM15.3422 15.9619C15.5149 16.158 15.5865 16.4024 15.5413 16.6419C15.4962 16.8814 15.3379 17.0963 15.1011 17.2398C13.9753 17.9016 12.642 18.2813 11.2611 18.3333C10.4543 18.3301 9.67201 18.1042 9.03888 17.6917C8.67444 17.4854 8.53555 17.4167 8.2611 17.4167C7.51825 17.5115 6.81735 17.7621 6.22555 18.1445C5.99083 18.2825 5.70026 18.3399 5.41521 18.3045C5.13016 18.2691 4.87294 18.1437 4.69787 17.9548C4.5228 17.7659 4.44358 17.5282 4.47694 17.292C4.5103 17.0558 4.65363 16.8395 4.87666 16.6888C5.85575 16.0618 7.03142 15.6783 8.26555 15.5833C9.0057 15.5931 9.72124 15.8042 10.3011 16.1838C10.5654 16.3799 10.9057 16.492 11.2611 16.5C12.1696 16.4439 13.0433 16.1878 13.7911 15.7584C14.0295 15.6158 14.3269 15.5572 14.6177 15.5953C14.9086 15.6335 15.1691 15.7653 15.3422 15.9619Z" fill="black"/>
</svg>
